<svg width="259" height="247" viewBox="0 0 259 247" fill="none" xmlns="http://www.w3.org/2000/svg">
<path d="M204.14 0H54.33C24.3244 0 0 24.3244 0 54.33V192.32C0 222.326 24.3244 246.65 54.33 246.65H204.14C234.146 246.65 258.47 222.326 258.47 192.32V54.33C258.47 24.3244 234.146 0 204.14 0Z" fill="white"/>
<path d="M207.866 102.72H199.346C197.596 102.72 196.176 104.14 196.176 105.89V142.6C196.176 151.02 190.976 156.6 182.806 156.6C174.006 156.6 169.676 152.01 169.676 142.6V105.86C169.676 105.44 169.586 105.05 169.436 104.68C168.966 103.53 167.816 102.72 166.496 102.72H157.986C157.696 102.72 157.426 102.76 157.156 102.84C157.076 102.86 157.006 102.88 156.926 102.91C155.696 103.34 154.806 104.52 154.806 105.89C154.806 107.83 154.036 109.69 152.646 111.03C151.076 112.55 149.226 114.11 147.106 115.58C146.406 116.06 145.676 116.53 144.906 116.99C141.786 92.1305 120.046 73.0005 94.126 74.0405C68.846 75.0605 48.246 95.5105 47.056 120.78C45.726 148.96 68.256 172.3 96.156 172.3C118.576 172.3 137.546 157.22 143.426 136.65C143.856 135.15 144.206 133.62 144.496 132.06C145.386 131.7 146.266 131.32 147.106 130.93C149.016 130.04 150.806 129.05 152.476 128C153.496 127.37 154.806 128.08 154.806 129.28V145.69C154.806 161.17 163.486 170.21 178.346 170.21C185.656 170.21 192.586 167.24 196.426 162.53H196.676V165.18C196.676 166.93 198.096 168.35 199.846 168.35H207.866C209.616 168.35 211.036 166.93 211.036 165.18V105.88C211.036 104.13 209.616 102.71 207.866 102.71V102.72ZM128.976 137.34C123.216 150.62 109.626 159.74 94.056 158.85C76.096 157.82 61.506 143.26 60.446 125.3C59.586 110.77 67.466 97.9605 79.296 91.6105C80.326 91.0605 81.546 91.8705 81.496 93.0305C81.106 102.41 84.076 112.06 90.236 119.68C99.456 131.1 111.936 134.53 121.256 135.32C122.956 135.47 124.566 135.53 126.026 135.53C126.616 135.53 127.186 135.53 127.726 135.5C128.676 135.47 129.346 136.44 128.976 137.31C128.976 137.31 128.976 137.32 128.976 137.33V137.34ZM129.706 121.99C128.316 122.11 126.416 122.2 124.196 122.11C117.336 121.82 107.496 119.74 100.656 111.28C95.486 104.88 93.706 96.0905 95.626 88.5105C95.796 87.8405 96.426 87.3805 97.106 87.4005C99.476 87.4605 101.776 87.7605 104.016 88.2605C119.126 91.6605 130.636 104.66 131.806 120.49C131.856 121.2 131.326 121.81 130.616 121.89C130.316 121.93 130.006 121.96 129.696 121.98L129.706 121.99Z" fill="black"/>
</svg>
